<!DOCTYPE svg PUBLIC "-//W3C//DTD SVG 1.1//EN" "http://www.w3.org/Graphics/SVG/1.1/DTD/svg11.dtd">
<!-- Uploaded to: SVG Repo, www.svgrepo.com, Transformed by: SVG Repo Mixer Tools -->
<svg fill="#02f45f" width="800px" height="800px" viewBox="0 0 24.00 24.00" xmlns="http://www.w3.org/2000/svg" stroke="#02f45f" stroke-width="0.9600000000000002">
<g id="SVGRepo_bgCarrier" stroke-width="0"/>
<g id="SVGRepo_tracerCarrier" stroke-linecap="round" stroke-linejoin="round"/>
<g id="SVGRepo_iconCarrier">
<path d="M6 21H3a1 1 0 0 1-1-1v-8a1 1 0 0 1 1-1h3a1 1 0 0 1 1 1v8a1 1 0 0 1-1 1zm7 0h-3a1 1 0 0 1-1-1V3a1 1 0 0 1 1-1h3a1 1 0 0 1 1 1v17a1 1 0 0 1-1 1zm7 0h-3a1 1 0 0 1-1-1V9a1 1 0 0 1 1-1h3a1 1 0 0 1 1 1v11a1 1 0 0 1-1 1z"/>
</g>
</svg>